<svg width="512" height="512" viewBox="0 0 512 512" fill="none" xmlns="http://www.w3.org/2000/svg">
<rect width="512" height="512" fill="url(#paint0_linear_1496_23116)"/>
<g clip-path="url(#clip0_1496_23116)">
<path d="M260.278 187.128H178.851C172.719 187.128 167.748 192.17 167.748 198.39C167.748 204.609 172.719 209.651 178.851 209.651H260.278C266.41 209.651 271.382 204.609 271.382 198.39C271.382 192.17 266.41 187.128 260.278 187.128Z" fill="white"/>
<path d="M301.53 316H220.104C213.971 316 209 321.042 209 327.261C209 333.481 213.971 338.523 220.104 338.523H301.53C307.663 338.523 312.634 333.481 312.634 327.261C312.634 321.042 307.663 316 301.53 316Z" fill="white"/>
<path d="M342.019 230.128H178.851C172.719 230.128 167.748 235.17 167.748 241.39C167.748 247.609 172.719 252.651 178.851 252.651H342.019C348.152 252.651 353.123 247.609 353.123 241.39C353.123 235.17 348.152 230.128 342.019 230.128Z" fill="white"/>
<path d="M342.019 273.147H178.851C172.719 273.147 167.748 278.189 167.748 284.408C167.748 290.628 172.719 295.67 178.851 295.67H342.019C348.152 295.67 353.123 290.628 353.123 284.408C353.123 278.189 348.152 273.147 342.019 273.147Z" fill="white"/>
<path d="M395.02 172.638C394.558 171.606 393.947 170.649 393.151 169.786L338.725 109.969C337.874 109.03 336.893 108.298 335.838 107.716C332.377 105.333 328.269 104 324.031 104H144.486C132.642 104 123 113.779 123 125.791V325.212C123 331.613 126.053 337.712 131.143 341.485L243.456 424.763C248.175 428.254 253.708 430 259.242 430C264.775 430 270.16 428.311 274.824 424.914L389.543 341.541C394.743 337.769 397.852 331.631 397.852 325.156L397.981 183.525C397.981 179.658 396.945 175.904 395.02 172.638ZM367.706 169.485H338.429V137.296L367.706 169.485ZM378.883 326.395L264.164 409.767C261.203 411.925 257.243 411.907 254.3 409.711L141.969 326.47C141.58 326.188 141.339 325.719 141.339 325.212V125.791C141.339 124.027 142.746 122.6 144.486 122.6H319.923V173.99C319.923 177.8 321.385 181.404 324.05 184.106C326.715 186.809 330.249 188.292 334.006 188.292L379.623 188.254L379.512 325.156C379.512 325.663 379.272 326.132 378.865 326.413L378.883 326.395Z" fill="white"/>
</g>
<defs>
<linearGradient id="paint0_linear_1496_23116" x1="948.5" y1="412.5" x2="48" y2="183" gradientUnits="userSpaceOnUse">
<stop stop-color="#004077"/>
<stop offset="1" stop-color="#0097D8"/>
</linearGradient>
<clipPath id="clip0_1496_23116">
<rect width="275" height="326" fill="white" transform="translate(123 104)"/>
</clipPath>
</defs>
</svg>
